<svg width="49" height="50" viewBox="0 0 49 50" fill="none" xmlns="http://www.w3.org/2000/svg">
<path d="M8.16665 41.3334C7.04373 41.3334 6.08244 40.9336 5.28279 40.1339C4.48314 39.3343 4.08331 38.373 4.08331 37.2501V12.7501C4.08331 11.6272 4.48314 10.6659 5.28279 9.86623C6.08244 9.06657 7.04373 8.66675 8.16665 8.66675H40.8333C41.9562 8.66675 42.9175 9.06657 43.7172 9.86623C44.5168 10.6659 44.9166 11.6272 44.9166 12.7501V37.2501C44.9166 38.373 44.5168 39.3343 43.7172 40.1339C42.9175 40.9336 41.9562 41.3334 40.8333 41.3334H8.16665ZM24.5 27.0417L8.16665 16.8334V37.2501H40.8333V16.8334L24.5 27.0417ZM24.5 22.9584L40.8333 12.7501H8.16665L24.5 22.9584ZM8.16665 16.8334V12.7501V37.2501V16.8334Z" fill="#232827"/>
</svg>
