<svg width="49" height="49" viewBox="0 0 49 49" fill="none" xmlns="http://www.w3.org/2000/svg">
<path d="M40.7313 42.875C36.4778 42.875 32.2753 41.9477 28.124 40.0932C23.9726 38.2387 20.1955 35.6101 16.7927 32.2073C13.3899 28.8045 10.7613 25.0274 8.90677 20.876C7.05226 16.7247 6.125 12.5222 6.125 8.26875C6.125 7.65625 6.32917 7.14583 6.7375 6.7375C7.14583 6.32917 7.65625 6.125 8.26875 6.125H16.5375C17.0139 6.125 17.4392 6.28663 17.8135 6.6099C18.1878 6.93316 18.409 7.31597 18.4771 7.75833L19.8042 14.9042C19.8722 15.4486 19.8552 15.908 19.7531 16.2823C19.651 16.6566 19.4639 16.9799 19.1917 17.2521L14.2406 22.2542C14.9212 23.5132 15.7293 24.7297 16.6651 25.9036C17.6009 27.0776 18.6302 28.209 19.7531 29.2979C20.808 30.3528 21.9139 31.3311 23.0708 32.2328C24.2278 33.1345 25.4528 33.9597 26.7458 34.7083L31.5438 29.9104C31.85 29.6042 32.2498 29.3745 32.7432 29.2214C33.2366 29.0682 33.7215 29.0257 34.1979 29.0938L41.2417 30.5229C41.7181 30.659 42.1094 30.9057 42.4156 31.263C42.7219 31.6203 42.875 32.0201 42.875 32.4625V40.7313C42.875 41.3438 42.6708 41.8542 42.2625 42.2625C41.8542 42.6708 41.3438 42.875 40.7313 42.875ZM12.301 18.375L15.6698 15.0063L14.8021 10.2083H10.2594C10.4295 11.6035 10.6677 12.9816 10.974 14.3427C11.2802 15.7038 11.7226 17.0479 12.301 18.375ZM30.574 36.6479C31.901 37.2264 33.2536 37.6858 34.6318 38.026C36.0099 38.3663 37.3965 38.5875 38.7917 38.6896V34.1979L33.9937 33.2281L30.574 36.6479Z" fill="#232827"/>
</svg>
