<svg width="50" height="50" viewBox="0 0 50 50" fill="none" xmlns="http://www.w3.org/2000/svg">
<path d="M25 4C13.408 4 4 13.408 4 25C4 36.592 13.408 46 25 46C36.592 46 46 36.592 46 25C46 13.408 36.592 4 25 4ZM34.744 18.28C34.429 21.598 33.064 29.662 32.371 33.379C32.077 34.954 31.489 35.479 30.943 35.542C29.725 35.647 28.801 34.744 27.625 33.967C25.777 32.749 24.727 31.993 22.942 30.817C20.863 29.452 22.207 28.696 23.404 27.478C23.719 27.163 29.095 22.27 29.2 21.829C29.2146 21.7622 29.2126 21.6929 29.1943 21.627C29.176 21.5611 29.1419 21.5007 29.095 21.451C28.969 21.346 28.801 21.388 28.654 21.409C28.465 21.451 25.525 23.404 19.792 27.268C18.952 27.835 18.196 28.129 17.524 28.108C16.768 28.087 15.34 27.688 14.269 27.331C12.946 26.911 11.917 26.68 12.001 25.945C12.043 25.567 12.568 25.189 13.555 24.79C19.687 22.123 23.761 20.359 25.798 19.519C31.636 17.083 32.833 16.663 33.631 16.663C33.799 16.663 34.198 16.705 34.45 16.915C34.66 17.083 34.723 17.314 34.744 17.482C34.723 17.608 34.765 17.986 34.744 18.28Z" fill="#232827"/>
</svg>
